# xmcd
#
# Track frame offsets: 
#        150
#        26279
#        49160
#        72238
#        91482
#        110321
#        137922
#        160454
#        178060
#        200536
#        221485
#        236396
#        256959
#        281393
#
# Disc length: 4085 seconds
#
# Revision: 0
# Processed by: cddbd v1.5.2PL0 Copyright (c) Steve Scherf et al.
# Submitted via: ExactAudioCopy v0.95a5
#
DISCID=c60ff30e
DTITLE=Poppy Moelter - Streetlights and Fireflies
DYEAR=2004
DGENRE=Local
TTITLE0=Sacred Pool
TTITLE1=Touch the Sky
TTITLE2=Streetlights and Fireflies
TTITLE3=To Our Best
TTITLE4=Arkansas Queen
TTITLE5=Goddess of the Moon
TTITLE6=Mask Makin' Blues
TTITLE7=Embrace the Chaos (The Same)
TTITLE8=Twin Tower Rain
TTITLE9=Bells of Acrosanti
TTITLE10=Nasty Attitude
TTITLE11=Down the Avenue
TTITLE12=Healing Days
TTITLE13=Awakening In Time
EXTD=
EXTT0=
EXTT1=
EXTT2=
EXTT3=
EXTT4=
EXTT5=
EXTT6=
EXTT7=
EXTT8=
EXTT9=
EXTT10=
EXTT11=
EXTT12=
EXTT13=
PLAYORDER=
